<?xml version="1.0" encoding="UTF-8" standalone="no"?>
<!DOCTYPE svg PUBLIC "-//W3C//DTD SVG 1.1//EN"
 "http://www.w3.org/Graphics/SVG/1.1/DTD/svg11.dtd">
<!-- Generated by graphviz version 2.42.4 (0)
 -->
<!-- Title: include/funciones.h Pages: 1 -->
<svg width="196pt" height="82pt"
 viewBox="0.00 0.00 195.50 82.00" xmlns="http://www.w3.org/2000/svg" xmlns:xlink="http://www.w3.org/1999/xlink">
<g id="graph0" class="graph" transform="scale(1 1) rotate(0) translate(4 78)">
<title>include/funciones.h</title>
<!-- Node1 -->
<g id="Node000001" class="node">
<title>Node1</title>
<g id="a_Node000001"><a xlink:title="Declaraciones de funciones para la simulaci贸n del oscilador.">
<polygon fill="#999999" stroke="#666666" points="146,-74 35,-74 35,-55 146,-55 146,-74"/>
<text text-anchor="middle" x="90.5" y="-62" font-family="Helvetica,sans-Serif" font-size="10.00">include/funciones.h</text>
</a>
</g>
</g>
<!-- Node2 -->
<g id="Node000002" class="node">
<title>Node2</title>
<g id="a_Node000002"><a xlink:href="main_8cpp.html" target="_top" xlink:title="Punto de entrada principal para la simulaci贸n del oscilador amortiguado.">
<polygon fill="white" stroke="#666666" points="79,-19 0,-19 0,0 79,0 79,-19"/>
<text text-anchor="middle" x="39.5" y="-7" font-family="Helvetica,sans-Serif" font-size="10.00">src/main.cpp</text>
</a>
</g>
</g>
<!-- Node1&#45;&gt;Node2 -->
<g id="edge1_Node000001_Node000002" class="edge">
<title>Node1&#45;&gt;Node2</title>
<g id="a_edge1_Node000001_Node000002"><a xlink:title=" ">
<path fill="none" stroke="#63b8ff" d="M75.12,-47.52C66.13,-38.18 55.14,-26.75 47.76,-19.09"/>
<polygon fill="#63b8ff" stroke="#63b8ff" points="72.62,-49.97 82.08,-54.75 77.67,-45.12 72.62,-49.97"/>
</a>
</g>
</g>
<!-- Node3 -->
<g id="Node000003" class="node">
<title>Node3</title>
<g id="a_Node000003"><a xlink:href="simular_8cpp.html" target="_top" xlink:title="Implementaci贸n de las funciones para la simulaci贸n del oscilador amortiguado.">
<polygon fill="white" stroke="#666666" points="187.5,-19 97.5,-19 97.5,0 187.5,0 187.5,-19"/>
<text text-anchor="middle" x="142.5" y="-7" font-family="Helvetica,sans-Serif" font-size="10.00">src/simular.cpp</text>
</a>
</g>
</g>
<!-- Node1&#45;&gt;Node3 -->
<g id="edge2_Node000001_Node000003" class="edge">
<title>Node1&#45;&gt;Node3</title>
<g id="a_edge2_Node000001_Node000003"><a xlink:title=" ">
<path fill="none" stroke="#63b8ff" d="M106.18,-47.52C115.34,-38.18 126.55,-26.75 134.07,-19.09"/>
<polygon fill="#63b8ff" stroke="#63b8ff" points="103.59,-45.16 99.09,-54.75 108.59,-50.06 103.59,-45.16"/>
</a>
</g>
</g>
</g>
</svg>
