<?xml version="1.0" encoding="UTF-8" standalone="no"?>
<!DOCTYPE svg PUBLIC "-//W3C//DTD SVG 1.1//EN"
 "http://www.w3.org/Graphics/SVG/1.1/DTD/svg11.dtd">
<!-- Generated by graphviz version 2.42.4 (0)
 -->
<!-- Title: main Pages: 1 -->
<svg width="369pt" height="64pt"
 viewBox="0.00 0.00 369.00 64.00" xmlns="http://www.w3.org/2000/svg" xmlns:xlink="http://www.w3.org/1999/xlink">
<g id="graph0" class="graph" transform="scale(1 1) rotate(0) translate(4 60)">
<title>main</title>
<!-- Node1 -->
<g id="Node000001" class="node">
<title>Node1</title>
<g id="a_Node000001"><a xlink:title="Función principal del programa.">
<polygon fill="#999999" stroke="#666666" points="41,-37 0,-37 0,-18 41,-18 41,-37"/>
<text text-anchor="middle" x="20.5" y="-25" font-family="Helvetica,sans-Serif" font-size="10.00">main</text>
</a>
</g>
</g>
<!-- Node2 -->
<g id="Node000002" class="node">
<title>Node2</title>
<g id="a_Node000002"><a xlink:href="simular_8cpp.html#ae38ee23831a104f63d65512fccb97dea" target="_top" xlink:title="Ejecuta la simulación y guarda los resultados en un archivo.">
<polygon fill="white" stroke="#666666" points="160,-56 77,-56 77,-37 160,-37 160,-56"/>
<text text-anchor="middle" x="118.5" y="-44" font-family="Helvetica,sans-Serif" font-size="10.00">guardarDatos</text>
</a>
</g>
</g>
<!-- Node1&#45;&gt;Node2 -->
<g id="edge1_Node000001_Node000002" class="edge">
<title>Node1&#45;&gt;Node2</title>
<g id="a_edge1_Node000001_Node000002"><a xlink:title=" ">
<path fill="none" stroke="#63b8ff" d="M41.39,-31.44C48.81,-32.91 57.62,-34.65 66.56,-36.42"/>
<polygon fill="#63b8ff" stroke="#63b8ff" points="66.16,-39.91 76.65,-38.42 67.52,-33.04 66.16,-39.91"/>
</a>
</g>
</g>
<!-- Node5 -->
<g id="Node000005" class="node">
<title>Node5</title>
<g id="a_Node000005"><a xlink:href="group__SimulacionFunciones.html#gae2dcc7e4db978c63cf73b9ea248a36a8" target="_top" xlink:title="Solicita al usuario los parámetros iniciales para la simulación.">
<polygon fill="white" stroke="#666666" points="153.5,-19 83.5,-19 83.5,0 153.5,0 153.5,-19"/>
<text text-anchor="middle" x="118.5" y="-7" font-family="Helvetica,sans-Serif" font-size="10.00">pedirDatos</text>
</a>
</g>
</g>
<!-- Node1&#45;&gt;Node5 -->
<g id="edge4_Node000001_Node000005" class="edge">
<title>Node1&#45;&gt;Node5</title>
<g id="a_edge4_Node000001_Node000005"><a xlink:title=" ">
<path fill="none" stroke="#63b8ff" d="M41.39,-23.77C50.64,-22.04 62.04,-19.9 73.18,-17.81"/>
<polygon fill="#63b8ff" stroke="#63b8ff" points="74.08,-21.2 83.26,-15.92 72.79,-14.32 74.08,-21.2"/>
</a>
</g>
</g>
<!-- Node3 -->
<g id="Node000003" class="node">
<title>Node3</title>
<g id="a_Node000003"><a xlink:href="group__SimulacionFunciones.html#ga33f95e636d24d1432f26a036e75abac7" target="_top" xlink:title="Aplica un paso del método de Runge&#45;Kutta de cuarto orden.">
<polygon fill="white" stroke="#666666" points="272,-56 196,-56 196,-37 272,-37 272,-56"/>
<text text-anchor="middle" x="234" y="-44" font-family="Helvetica,sans-Serif" font-size="10.00">rungeKutta4</text>
</a>
</g>
</g>
<!-- Node2&#45;&gt;Node3 -->
<g id="edge2_Node000002_Node000003" class="edge">
<title>Node2&#45;&gt;Node3</title>
<g id="a_edge2_Node000002_Node000003"><a xlink:title=" ">
<path fill="none" stroke="#63b8ff" d="M160.16,-46.5C168.39,-46.5 177.11,-46.5 185.55,-46.5"/>
<polygon fill="#63b8ff" stroke="#63b8ff" points="185.65,-50 195.65,-46.5 185.65,-43 185.65,-50"/>
</a>
</g>
</g>
<!-- Node4 -->
<g id="Node000004" class="node">
<title>Node4</title>
<g id="a_Node000004"><a xlink:href="group__SimulacionFunciones.html#ga51a227b521347b46ec438fbff27ef9ee" target="_top" xlink:title="Calcula las derivadas del sistema de ecuaciones diferenciales.">
<polygon fill="white" stroke="#666666" points="361,-56 308,-56 308,-37 361,-37 361,-56"/>
<text text-anchor="middle" x="334.5" y="-44" font-family="Helvetica,sans-Serif" font-size="10.00">funcion</text>
</a>
</g>
</g>
<!-- Node3&#45;&gt;Node4 -->
<g id="edge3_Node000003_Node000004" class="edge">
<title>Node3&#45;&gt;Node4</title>
<g id="a_edge3_Node000003_Node000004"><a xlink:title=" ">
<path fill="none" stroke="#63b8ff" d="M272.24,-46.5C280.59,-46.5 289.43,-46.5 297.72,-46.5"/>
<polygon fill="#63b8ff" stroke="#63b8ff" points="297.85,-50 307.85,-46.5 297.85,-43 297.85,-50"/>
</a>
</g>
</g>
</g>
</svg>
